<?xml version="1.0" encoding="UTF-8"?>
<svg id="Argali" xmlns="http://www.w3.org/2000/svg" viewBox="184 271 592 418">
  <defs>
    <style>
      .cls-1 {
        fill: #000;
        stroke-width: 0px;
      }
    </style>
  </defs>
  <path class="cls-1" d="M505.6,374.93c.04.26-.01.57.12.76,2.25,3.32,5,6.16,8.56,8.03,3.39,1.79,7.06,2.65,10.92,2.27,1.21-.12,2.41-.43,3.59-.73,2.23-.56,4.37-.03,6.44.63,1.9.6,3.38,1.88,4.3,3.68.62,1.21,1.53,2.07,2.59,2.91,2.49,1.99,4.49,4.41,6.02,7.24,1.27,2.36,1.46,4.85,1.12,7.42-.24,1.82-.59,3.62-.92,5.42-.85,4.7-2.42,9.13-4.92,13.21-.02.03-.11.02-.3.06.06-.37.07-.71.17-1.02.9-2.93,1.92-5.82,2.68-8.78.73-2.87,1.35-5.79,1.33-8.8-.01-1.81-.47-3.45-1.53-5.01-.58-.3-1.19-.61-1.76-.9-.35.08-.61.11-.85.2-1.74.63-2.52,2.15-3.21,3.65-1.7,3.67-2.68,7.58-3.66,11.49-.17.67-.12,1.4-.13,2.1,0,.88.02,1.76.06,2.64.1,2.14-.37,4.17-1.21,6.13-1.09,2.56-1.16,3.27-.86,6.06.41,1.1,1.39,1.01,2.29,1.2-.04.87-.59,1.4-1.06,2.01-.76.98-1.6,1.87-2.69,2.47-.61.34-1.25.66-2.32.47-.5-.22-1.3-.58-2.16-.96-1.76.16-3.27,1.08-4.76,1.99-3.4,2.06-4.97,5.3-5.74,9.04-.31,1.54-.75,3.08-.87,4.63-.21,2.71-.91,5.42-.58,8.11.34,2.81.26,5.61.45,8.4.08,1.22.26,2.43.4,3.65.24,2.04-.47,4-.55,5.96-.55,1.36-1.37,2.43-2.39,3.45-2.62,2.63-4.02,5.9-4.42,9.6-.21,1.92-.62,3.77-1.29,5.6-1.7,4.64-4.04,8.94-6.39,13.26-1.8,3.31-3.84,6.5-5.11,10.08-.76,2.15-1.32,4.32-1.48,6.63-.35,5-2.44,9.12-6.8,11.84-4.1,2.56-8.53,3.01-13.12,1.58-6-1.86-9.4-6.18-11.05-12.03-.35-1.25-.42-2.59-.63-3.88-.07-.43-.17-.86-.29-1.27-1.01-3.28-2.38-6.38-4.02-9.41-2.96-5.48-5.93-10.96-8.09-16.83-.67-1.83-1.05-3.71-1.25-5.61-.34-3.25-1.61-6.07-3.52-8.65-.31-.42-.72-.77-1.08-1.15-.54-.57-1.08-1.15-1.55-1.64-.87-2.28-1.18-4.53-1.2-6.81-.01-1.74.27-3.49.4-5.23.12-1.66.18-3.31.36-4.97.26-2.33.4-4.73-.18-7.08-.1-.42-.12-.87-.11-1.31.03-2.75-.81-5.36-1.29-8.02-.4-2.17-1.55-4.1-2.96-5.81-.78-.95-1.7-1.79-2.83-2.33-1.42-.68-2.74-1.59-4.47-1.8-.71.33-1.5.7-2.39,1.11-3.07-.29-4.47-2.64-6.12-4.98.76-.17,1.33-.3,1.74-.39.92-.55.95-1.41,1.3-1.96-.28-2.17-.91-4.08-1.64-5.95-.65-1.67-1.06-3.35-.91-5.13.3-3.38-.34-6.6-1.37-9.82-.58-1.84-1.14-3.68-1.88-5.45-.77-1.87-1.7-3.67-3.56-4.78h-1.46c-.69.67-1.44,1.4-2.04,1.98-.6,1.9-1.05,3.64-.74,5.39.39,2.24.52,4.52,1.17,6.71.96,3.26,1.87,6.53,2.81,9.83-.28.35-.44-.07-.52-.2-1.93-3.27-3.22-6.78-4.09-10.48-.64-2.73-.97-5.51-1.42-8.26-.58-3.52.72-6.56,2.84-9.29,1.4-1.8,2.86-3.55,4.76-4.88.85-.6,1.5-1.43,2.05-2.37.66-1.11,1.36-2.23,2.59-2.92.92-.51,1.74-1.23,2.81-1.37,1.81-.24,3.57-.77,5.46-.32,2.03.49,4.08.96,6.22.81,2.93-.21,5.72-.96,8.28-2.33,3.55-1.9,6.32-4.71,8.55-8.04.13-.19.07-.51.1-.76.36,0,.5-.21.53-.53.08-.1.52.02.21-.33-.05.13-.1.26-.15.38-.36-.01-.52.18-.54.52-.91.25-1.37,1.06-1.96,1.68-1.71,1.79-3.57,3.38-5.71,4.63-.68.4-1.37.78-2.08,1.13-2.75,1.35-5.68,1.79-8.71,1.48-1.03-.11-2.05-.44-3.05-.74-1.78-.52-3.56-.8-5.43-.87-4.01-.15-6.9,1.6-9,4.89-.18.29-.39.56-.55.8-.72-.02-.96-.54-1.3-.9-3.65-3.81-7.27-7.64-10.92-11.45-.97-1.02-1.98-2-2.99-2.99-3.31-3.27-6.81-6.34-10.33-9.39-3.86-3.34-7.95-6.35-12.22-9.13-2.96-1.93-6.09-3.47-9.34-4.81-3.59-1.48-7.35-1.68-11.13-1.22-2.22.27-4.09,1.5-5.78,2.96-2.59,2.24-4.34,5.07-5.6,8.19-1.44,3.58-2.54,7.29-3.12,11.1-.53,3.45-1.27,6.9-1.22,10.43-.87,5.86-.48,11.75-.53,17.63-.05,5.81.07,11.61.12,17.42.59,3.75.21,7.55.61,11.29.31,2.9.14,5.8.47,8.67.47,4.12.17,8.26.58,12.36.6,5.98.26,11.94.34,17.91.01.93.06,1.88-.79,2.62-.03-.31-.1-.58-.09-.83.15-3-.38-5.96-.73-8.91-.38-3.2-.69-6.42-1.32-9.61-.58-2.91-.78-5.89-1.25-8.83-.5-3.11-1.09-6.2-1.69-9.28-.6-3.09-1.26-6.16-1.92-9.24-.94-4.36-1.91-8.71-2.87-13.06-1-4.52-2.01-9.04-3-13.56-.81-3.67-1.62-7.34-2.37-11.02-.49-2.4-.86-4.82-1.32-7.22-.41-2.15-.8-4.29-1.16-6.45-.51-3.1-1.12-6.19-1.49-9.32-.21-1.73-.56-3.45-.84-5.17-.06-.35-.09-.7-.13-1.04-.21-2.18-.27-4.38-.66-6.53-.35-1.92-.21-3.87-.53-5.75-.62-3.67-.42-7.36-.48-11.04-.06-3.69-.18-7.41.14-11.08.5-5.68,1.42-11.3,4.29-16.38,1.32-2.33,3.05-4.27,5.45-5.55,2.84-1.51,5.87-1.74,8.96-1.19,3.29.59,6.39,1.79,9.4,3.25,3.57,1.73,6.9,3.84,10.16,6.06.21.15.45.26.64.37.43-.15.28-.37.1-.54-4.04-3.65-8.19-7.18-13.02-9.77-2.63-1.41-5.38-2.56-8.4-2.89-.87-.1-1.73-.41-2.58-.38-3.04.1-5.84.93-8.31,2.81-2.15,1.63-3.66,3.75-4.93,6.07-.61,1.12-1.13,2.28-1.73,3.52-.19-.87-.06-1.62.12-2.4.9-3.79,2.29-7.38,4.55-10.56,1.31-1.84,2.8-3.55,4.54-5.08,5.09-4.46,11.11-6.96,17.54-8.62,2.45-.63,4.96-1.03,7.44-1.53,2.23-.45,4.45-.92,6.68-1.36,1.71-.34,3.46-.57,5.15-.95,2.42-.55,4.92-.15,7.3-.86,2.89.04,5.79-.36,8.67.27.42.09.87.09,1.31.11,4.6.2,8.97,1.43,13.25,3.02,3.06,1.14,5.89,2.71,8.63,4.47.58.38,1.22.69,1.87.94,2.16.82,2.17.8,3.4,2.61.59.18,1.17.4,1.76.54,1.73.42,3.13,1.19,3.39,3.22.91.05,1.68.09,2.57.13.46.23,1,.5,1.61.8.32.8.64,1.61,1.03,2.6.51.19,1.15.45,1.79.68.66.23,1.34.39,1.99.65,1.35.56,2.35,1.51,2.93,2.88.24.56.5,1.11.75,1.65,1.77.64,3.72.6,5.46,2.08.25.36.7,1,1.01,1.45.41,1.13,0,2.17.72,3.18,1.39.3,2.95.52,4.31,1.38,1.31.83,1.99,2.2,2.9,3.24,3.81,1.09,5.05,2.23,6.52,5.92.13.32.27.63.42,1.01,5.24,1.11,8.08,4.57,9.33,9.65,2.44.66,4.38,2.12,5.96,4.07,1.53,1.89,2.09,4.18,2.44,6.52,2.74-.49,5.32-.54,7.93.06,1,.23,2.14.26,3.14.03,2.68-.62,5.34-.6,8.02-.1,1.65-7.03,4.25-8.92,8.48-10.59.19-.5.44-1.05.61-1.63,1.28-4.23,4.02-6.89,8.36-7.86.08-.02.15-.09.39-.23.24-.48.54-1.11.86-1.72.45-.85.84-1.74,1.41-2.51.91-1.23,2.07-2.15,3.7-2.27.25-.02.5-.14.94-.27.57-.7,1.22-1.52,1.95-2.44q2.1-1.52,5.45-2.37c.09-.42.29-.92.29-1.41-.01-2.05,1.98-4.29,4.37-4.56.77-.09,1.53-.31,2.26-.47.56-1.11,1.08-2.12,1.45-2.85,1.76-1.98,3.94-2.42,6-3.02.5-1.02.95-1.96,1.31-2.7,1.2-1.07,2.46-.92,3.77-.88.44-.76.86-1.51,1.24-2.16,1.26-1.1,2.8-1.22,4.19-1.72,1.26-1.85,1.24-1.88,3.17-2.52,1.18-.39,2.25-.98,3.26-1.68,3.87-2.69,8.24-4.32,12.73-5.51,2.68-.71,5.45-1.18,8.27-1.39,2.1-.15,4.19-.36,6.29-.35,1.57.01,3.16-.14,4.71.37.32.11.7.06,1.05.06,3.43.08,6.76.82,10.12,1.43,3.18.58,6.31,1.38,9.51,1.91,6.08,1,11.92,2.88,17.27,6.04,2.96,1.75,5.55,3.91,7.8,6.57,3.21,3.8,5.05,8.17,6.2,12.91.18.75.1,1.57.14,2.36l.06-.06c-.78-.95-1.06-2.15-1.59-3.23-.81-1.67-1.81-3.22-3.01-4.59-1.95-2.21-4.43-3.6-7.31-4.35-3.87-1.01-7.42.11-10.95,1.43-3.81,1.42-7.14,3.67-10.3,6.16-1.51,1.19-2.93,2.49-4.36,3.77-.24.21-.34.57-.5.87-.36,0-.54.18-.52.54-.11.08-.52-.09-.27.31.07-.12.14-.24.21-.36.32-.03.53-.18.54-.53.4-.13.86-.18,1.2-.41,2.77-1.86,5.65-3.54,8.63-5.03,3-1.5,6.1-2.68,9.39-3.27,4.27-.76,8.23.03,11.57,2.94,1.74,1.52,2.96,3.49,3.88,5.59,1.56,3.54,2.4,7.28,2.9,11.13.33,2.54.38,5.06.52,7.6.09,1.57.45,3.12.35,4.71-.13,1.92-.29,3.84-.37,5.76-.08,1.93.05,3.88-.16,5.8-.39,3.57-.57,7.16-1.07,10.71-.6,4.24-.91,8.52-1.91,12.69-.03,2.74-.82,5.36-1.24,8.03-.64,4.14-1.6,8.22-2.43,12.33-.94,4.71-1.83,9.43-2.84,14.13-.84,3.93-1.85,7.82-2.75,11.74-1.23,5.36-2.67,10.68-3.57,16.12-.36,2.15-.93,4.27-1.33,6.41-.46,2.49-.84,5-1.26,7.5-.48,2.84-.98,5.68-1.44,8.52-.24,1.47-.21,2.95-.53,4.43-.42,1.96-.37,4.01-.7,5.99-.37,2.26-.46,4.53-.59,6.81-.03.56-.37,1.11-.83,1.61,0-2.9-.24-5.82.07-8.68.32-2.98.26-5.96.42-8.93.04-.78.18-1.56.26-2.34.07-.78.13-1.57.18-2.36.14-2.1-.09-4.21.46-6.29.18-.66.05-1.4.09-2.1.1-1.92-.06-3.86.44-5.76.19-.75.06-1.58.1-2.37.1-1.84.08-3.66.39-5.5.3-1.8.12-3.68.19-5.53.04-1.22-.09-2.45.34-3.66.17-.48.09-1.05.09-1.57.01-9.41.03-18.82.02-28.24,0-.87-.17-1.74-.27-2.6-.05-.43-.14-.87-.15-1.3-.03-2.99-.6-5.91-1.02-8.86-.53-3.75-1.43-7.38-2.7-10.93-.96-2.66-2.17-5.2-3.85-7.46-3.22-4.33-7.58-6.5-12.98-6.08-2.86.22-5.69.96-8.35,2.15-5.39,2.42-10.39,5.48-15.05,9.12-3.81,2.97-7.45,6.13-11.05,9.35-4.33,3.87-8.35,8.06-12.44,12.17-2.1,2.12-4.07,4.37-6.1,6.56-.36.38-.72.76-1.02,1.08-.66-.06-.78-.5-1.01-.86-1.47-2.3-3.38-4.08-6.13-4.62-1.99-.39-4.01-.38-6.01.08-1.11.25-2.22.49-3.31.81-4.52,1.31-8.68.29-12.59-2-2.2-1.29-4.16-2.93-5.93-4.78-.59-.61-1.03-1.44-1.97-1.65.06-.64-.19-1.08-.84-1.38-.13.8.27,1.14.88,1.34Z"/>
  <path class="cls-1" d="M402.43,494.08c.21,1.64.42,3.29.61,4.93.03.26.04.53,0,.79-.47,3.64-.75,7.3-1.75,10.86-1.52,5.44-3.73,10.57-6.47,15.49-3.06,5.49-6.86,10.4-11.55,14.6-2.97,2.67-6.35,4.72-10.07,6.13-2.55.97-5.27,1.5-8,1.13-3.55-.48-7.08-1.09-10.5-2.23-5.86-1.95-11.31-4.71-16.44-8.17-4.16-2.81-8.1-5.87-11.75-9.3-1.66-1.56-3.44-3-5.16-4.5-4.52-3.92-9.59-7.08-14.47-10.5-5.24-3.67-10.5-7.34-15.83-10.89-6.43-4.28-12.89-8.49-19.42-12.6-4.82-3.04-9.78-5.87-14.67-8.8-3.61-2.17-7.35-4.11-11.07-6.1-4.73-2.53-9.59-4.74-14.59-6.64-2.7-1.03-5.47-1.83-8.38-2.07-.52-.04-1.03-.19-1.54-.3-2.91-.65-5.84-1.04-8.8-1.37-4.04-.45-8.07-.26-12.1-.43-1.76-.07-3.45-.47-5.15-.89-3.84-.95-5.88-3.65-6.98-7.2-.44-1.41-.84-2.88-.53-4.4.3-1.49,1-2.79,2.01-3.93,2.53-2.03,5.46-3.05,8.61-3.65,3.46-.66,6.92-1.06,10.44-1.03,3.43.03,6.86.03,10.29,0,3.69-.03,7.33.44,10.97.98,5.21.77,10.26,2.11,15.31,3.56,6.33,1.81,12.44,4.2,18.52,6.69,3.81,1.56,7.58,3.24,11.27,5.08,3.3,1.65,6.69,3.11,9.94,4.83,5.12,2.7,10.29,5.32,15.27,8.3,4.52,2.7,9.11,5.28,13.64,7.96,2.72,1.61,5.39,3.3,8.07,4.96,1.79,1.11,3.57,2.23,5.36,3.35,3.57,2.24,6.87,4.86,10.22,7.42,6.21,4.74,12.57,9.27,19.27,13.28,4.44,2.66,9.01,5.1,13.84,7.02,3.26,1.3,6.57,2.57,10.04,3.01,3.55.45,7.2.73,10.64-.83.63-.29,1.28-.58,1.85-.96,2.85-1.89,4.98-4.36,6.18-7.63,1.16-3.15,2.04-6.33,2.07-9.71.61-2.04.32-4.17.78-6.26Z"/>
  <path class="cls-1" d="M772.1,450.4c.42,2.86.17,5.53-1.23,8.01-1.65,2.92-4.08,4.69-7.45,5.25-2.7.45-5.41.59-8.13.5-3.53-.12-7,.47-10.51.61-1.55.06-3.08.57-4.62.87-1.8.35-3.59.79-5.4,1.02-2.29.29-4.45,1.05-6.55,1.88-6.21,2.44-12.25,5.27-18.03,8.62-3.87,2.24-7.81,4.37-11.65,6.65-3.92,2.33-7.8,4.73-11.65,7.18-5.84,3.72-11.68,7.46-17.44,11.3-6.49,4.33-12.92,8.76-19.35,13.19-2.96,2.04-5.87,4.16-8.8,6.24-.21.15-.44.29-.64.46-1.97,1.75-3.96,3.47-5.9,5.26-7.13,6.6-14.87,12.31-23.79,16.28-3.29,1.46-6.71,2.54-10.23,3.31-1.96.43-3.94.88-5.94,1-4.51.28-8.67-1.08-12.51-3.35-2.87-1.7-5.54-3.74-7.82-6.19-3.65-3.93-6.88-8.2-9.42-12.95-2.11-3.95-3.99-8-5.36-12.28-.8-2.51-1.3-5.07-1.85-7.64-.61-2.87-.48-5.76-.49-8.65,0-1.24.23-2.4.92-3.72.03,2.14.04,4.07.1,6,.13,4.34,1.03,8.54,2.97,12.42,2.51,5.02,6.63,7.75,12.34,8.04,4.1.21,8.05-.46,11.87-1.83,4.62-1.65,9.11-3.61,13.4-6.06,4.65-2.66,9.24-5.4,13.61-8.49,3.58-2.53,7.21-5,10.62-7.75,4.19-3.37,8.63-6.32,13.18-9.14,4.92-3.05,9.89-6.02,14.83-9.03,5.17-3.15,10.5-6.03,15.79-8.97,6.37-3.55,12.9-6.79,19.49-9.89,9.6-4.51,19.45-8.43,29.64-11.42,3.44-1.01,6.93-1.81,10.45-2.51,2.14-.43,4.3-.73,6.46-1.07,4.81-.75,9.65-.38,14.47-.5,1.85-.05,3.7,0,5.54.03,3.87.07,7.68.57,11.4,1.63,1.51.43,2.96,1.02,4.31,1.88,1.53.98,2.72,2.2,3.34,3.82Z"/>
  <path class="cls-1" d="M579.19,375.92c.47.59.71.83.88,1.11,2.64,4.2,4.32,8.81,5.74,13.53,1.06,3.53,1.8,7.13,2.51,10.74.36,1.8.5,3.65.74,5.47.29,2.26.59,4.52.88,6.78.03.26.06.53.06.79.12,4.92.74,9.81.63,14.74-.08,3.43-.01,6.86-.04,10.29-.01,1.58.07,3.16-.37,4.72-.12.41-.07.87-.09,1.31-.2,5.72-.4,11.44.01,17.15.49,6.69,1.88,13.2,5.22,19.13,3.75,6.66,9.5,10.36,17,11.56,2.36.38,4.71.45,7.09.42.34,0,.68.05,1,.08.19.65-.28.85-.59,1.07-5.03,3.69-10.13,7.29-15.48,10.49-3.62,2.17-7.26,4.3-11.1,6.05-3.91,1.79-7.88,3.41-12.13,4.26-2.95.59-5.92.75-8.87.22-3.46-.63-6.1-2.67-8-5.58-1.05-1.61-1.84-3.38-2.32-5.28-.51-2.05-.86-4.1-1.1-6.2-.27-2.37-.47-4.74-.29-7.09.25-3.14.4-6.29.77-9.43.53-4.46,1.72-8.76,2.65-13.13,1.51-7.02,2.97-14.05,4.44-21.08,1-4.8,2.04-9.59,2.96-14.41.84-4.39,1.54-8.8,2.31-13.2.65-3.71,1.35-7.41,1.93-11.13.48-3.03.81-6.08,1.23-9.12.28-2.08.62-4.16.89-6.24.23-1.83.48-3.66.57-5.49.18-3.77.8-7.52.7-11.31,0-.26.07-.51.16-1.21Z"/>
  <path class="cls-1" d="M339.2,493.84c.65-.08,1.06-.2,1.46-.17,2.65.16,5.28-.07,7.87-.53,3.67-.65,7.07-1.98,10.1-4.24,2.73-2.04,4.77-4.64,6.42-7.58,1.77-3.17,2.96-6.55,3.73-10.08.58-2.65.9-5.35,1.21-8.05.5-4.3.38-8.6.34-12.9-.01-1.48-.32-2.97-.35-4.45-.13-5-.66-10-.51-15.01.14-4.48.24-8.96.52-13.42.21-3.41.54-6.82,1.02-10.2,1.04-7.38,2.42-14.69,5.11-21.7,1.23-3.2,2.53-6.35,4.47-9.18.55.09.41.51.43.78.2,2.89.33,5.78.59,8.67.2,2.27.57,4.52.83,6.78.24,2.09.43,4.19.67,6.28.21,1.83.44,3.65.72,5.47.43,2.86.89,5.71,1.36,8.56.46,2.76.93,5.53,1.41,8.29.59,3.37,1.15,6.73,1.79,10.09.77,4.04,1.6,8.07,2.41,12.11.76,3.78,1.52,7.56,2.31,11.33.77,3.69,1.54,7.37,2.36,11.05.91,4.1,1.95,8.18,2.79,12.3.42,2.05.42,4.19.76,6.26.75,4.55.58,9.12.38,13.68-.17,3.87-.94,7.66-2.82,11.13-1.15,2.12-2.58,3.99-4.73,5.19-1.61.9-3.3,1.56-5.19,1.74-3.91.37-7.67-.19-11.38-1.35-5.48-1.71-10.57-4.27-15.56-7.07-6.83-3.83-13.24-8.29-19.58-12.88-.27-.2-.51-.45-.96-.87Z"/>
  <path class="cls-1" d="M513.28,614.41c-3.45.29-14.86.22-16.81-.12-.1-.35-.26-.74-.32-1.16-.09-.61-.1-1.22-.13-1.69-.37-1.15-1.07-1.76-2.06-2.05-.59-.17-1.17-.41-1.78-.48-2.01-.21-4.02-.47-6.03-.5-5.72-.07-11.44-.08-17.15-.01-2.28.03-4.55.32-6.82.51-.43.04-.84.25-1.27.33-2.78.48-3.99,2.41-4.36,4.94-.67,4.54-.61,9.11-.46,13.68.05,1.57.26,3.15.45,4.71.07.6.29,1.19.45,1.78.53,1.98,1.82,3.11,3.83,3.53,1.12.23,2.23.43,3.38.43,8.53,0,17.06.02,25.6.03,2.04,0,4.02-.28,5.77-1.39,1.49-1.88,1.13-3.98,1-6.16-2.52-.38-4.98-.12-7.42-.17-2.46-.05-4.93,0-7.39-.01-2.45-.01-4.91.05-7.47-.04-.12-.51-.28-.91-.29-1.32-.02-2.9-.02-5.81,0-8.71,0-.33.1-.66.18-1.1.67-.05,1.27-.14,1.86-.14,17.94-.19,35.59-.07,37.54.26.11.46.32.96.32,1.45,0,1.49.16,2.98-.18,4.47-.14.59-.07,1.22-.08,1.84-.06,2.9-.05,5.81-.19,8.71-.09,1.75-.26,3.51-.64,5.21-1.12,4.94-4.4,7.89-9.13,9.25-2.18.63-4.45.9-6.72,1.19-4.99.64-10,.44-15.01.57-2.63.07-5.27.37-7.89.23-5.27-.3-10.55-.11-15.81-.45-3.58-.24-7.16-.66-10.55-2.01-3.34-1.32-5.92-3.46-7.24-6.86-.79-2.04-1.32-4.18-1.41-6.39-.22-5.35-.55-10.7-.5-16.07.03-3.52.37-7.02.57-10.52.14-2.53.82-5.01,1.87-7.36,1.35-3.04,3.64-5.08,6.71-6.34,1.65-.68,3.38-.92,5.09-1.28,1.54-.32,3.12-.5,4.7-.57,4.65-.21,9.28-.7,13.95-.64,5.89.08,11.79-.05,17.68.13,3.05.09,6.12.35,9.17.78,2.09.29,4.15.68,6.19,1.2,1.73.44,3.3,1.19,4.7,2.29,1.94,1.53,3.1,3.59,3.67,5.95.77,3.18.93,6.42.67,9.67,0,.08-.08.15-.21.37Z"/>
  <path class="cls-1" d="M363.28,595.05c.26-.11.56-.32.89-.36.61-.07,1.23-.04,1.84-.04,15.83,0,31.67,0,47.5.04,3.07,0,6.16.04,9.2.43,4.21.53,7.68,2.44,9.54,6.53.4.87.69,1.81.86,2.75.28,1.64.55,3.3.61,4.96.1,2.63.09,5.28,0,7.91-.06,1.57-.24,3.16-.58,4.69-.79,3.57-3.08,5.82-6.53,6.92-.33.1-.66.2-.99.31-.06.02-.09.13-.15.2.02.5.44.43.74.5,1.85.42,3.44,1.26,4.76,2.64.95.99,1.51,2.18,1.72,3.49.26,1.64.44,3.31.49,4.97.08,2.9.04,5.81.04,8.71,0,.51-.05,1.03-.07,1.44-.17.16-.23.23-.3.28-.07.04-.16.08-.24.09-.53.03-1.05.06-1.58.06-4.83,0-9.66,0-14.25,0-.79-.43-.85-.96-.86-1.49-.04-2.37-.1-4.75-.11-7.12,0-1.08-.31-2.07-.74-3.05-.66-1.52-1.86-2.3-3.45-2.5-.61-.08-1.23-.08-1.84-.08-9.32-.02-18.65-.04-27.97-.05-.34,0-.68.07-1.14.12-.06.46-.15.88-.16,1.29-.01,3.52,0,7.04-.01,10.56,0,.68-.06,1.37-.09,1.96-.3.16-.45.31-.59.31-5.45.01-10.89,0-16.47,0-.1-.46-.23-.86-.26-1.27-.04-.61-.01-1.23-.01-1.85,0-16.8,0-33.6,0-50.41,0-.96-.17-1.93.21-2.97ZM414.9,621.53c1.43-1.92,1.42-4.12,1.39-6.32-.02-1.79-.3-3.48-1.28-4.73-1.27-1.15-2.59-1.17-3.92-1.18-9.74-.02-19.48-.04-29.23-.05-.42,0-.89-.08-1.18.35-.17,1.58-.29,10.35-.15,12.34.02.24.16.48.23.69.76.53,1.58.32,2.35.32,5.62.02,11.23.06,16.85,0,4.03-.05,8.05-.25,12.08-.36,1-.03,1.89-.3,2.86-1.06Z"/>
  <path class="cls-1" d="M304.31,594.81c.53-.06.96-.14,1.39-.15,8.35-.18,22.73-.08,25.06.16.66.35.93,1.01,1.25,1.64,2.43,4.68,4.87,9.35,7.31,14.02,4.72,9.03,9.43,18.07,14.15,27.1,2.24,4.28,4.52,8.54,6.76,12.82.11.22.1.5.15.81-.23.12-.45.34-.66.34-6.15.02-12.31.01-18.55.01-.32-.53-.66-1.04-.93-1.57-1-1.95-1.99-3.92-2.97-5.88-.35-.71-.69-1.42-1.25-1.9-2.2-.21-34.42-.24-37.11-.03-1.8,2.93-3.04,6.23-4.76,9.03-.3.17-.37.22-.45.25-.08.04-.16.09-.25.09-5.98.02-11.96.03-17.95.04-.26,0-.52-.06-.77-.11-.08-.02-.14-.1-.34-.24.13-.35.24-.75.43-1.11,1.98-3.73,3.97-7.44,5.95-11.16.21-.39.42-.77.63-1.16,2.61-4.98,5.21-9.97,7.84-14.94,4.64-8.77,9.31-17.54,13.97-26.3.32-.61.73-1.18,1.09-1.76ZM329.74,629.14c-.96-2.5-2.3-4.75-3.45-7.09-1.12-2.29-2.27-4.55-3.44-6.82-1.2-2.33-2.23-4.75-3.78-6.94-1.09-.08-2.12-.16-3.09.05-.18.2-.33.31-.41.46-3.33,6.58-6.65,13.15-9.96,19.74-.09.18-.01.45-.01.67,2,.19,19.63.32,23.26.17.25-.01.49-.13.87-.23Z"/>
  <path class="cls-1" d="M538.88,642.14c-1.62,3.17-3.17,6.22-4.73,9.28-2.27.35-4.46.13-6.64.17-2.11.04-4.22.04-6.34,0-2.18-.05-4.37.2-6.53-.17,0-.28-.06-.48,0-.62,1.23-2.43,2.43-4.88,3.72-7.28,8.72-16.15,17.13-32.47,25.88-48.61.63-.1,1.14-.24,1.65-.24,7.92-.01,15.84-.01,23.76,0,.43,0,.86.07,1.34.11,1.18,1.58,1.96,3.35,2.85,5.05,3.17,5.98,6.25,12,9.38,18,4.55,8.73,9.11,17.45,13.67,26.17,1.02,1.95,2.07,3.88,3.08,5.82.24.46.42.94.61,1.39-.25.17-.39.34-.53.34-6.24.01-12.48.01-18.75.01-.91-.83-1.21-1.97-1.76-2.95-.6-1.07-1.1-2.2-1.66-3.3-.51-1.02-1.04-2.03-1.58-3.09-.47-.06-.89-.17-1.32-.17-11.62,0-23.23,0-34.85,0-.35,0-.69.05-1.28.09ZM556.1,608.31c-1.18,1.67-9.61,18.24-10.63,20.86,1.79.24,19.6.39,23.64.19.24-.01.48-.15.83-.26-.51-.98-1-1.89-1.47-2.82-2.68-5.32-5.36-10.64-8.05-15.96-.35-.69-.77-1.34-1.15-2h-3.16Z"/>
  <path class="cls-1" d="M661.46,651.59c-19.13,0-38.19,0-57.26,0-.24,0-.49-.12-.76-.19-.08-.28-.2-.52-.21-.76-.18-3.74-.04-53.86.16-55.75.37-.07.78-.21,1.2-.21,5.1-.02,10.2-.01,15.3,0,.42,0,.83.12,1.31.19.31,1.84.13,3.59.16,5.33.03,1.76,0,3.52,0,5.27v20.83c0,1.67,0,3.34,0,5.01.01,1.74-.05,3.49.04,5.19.84.58,1.65.37,2.41.37,10.11.02,20.22.01,30.33.01,1.93,0,3.87-.01,5.8,0,.51,0,1.01.12,1.49.18.15.35.34.58.34.82.02,4.31.01,8.61,0,12.92,0,.16-.12.31-.3.79Z"/>
  <path class="cls-1" d="M665.75,594.77c4.71-.28,15.64-.18,17.57.14.06.06.14.12.17.19.06.16.14.33.14.5.01,18.21.02,36.42.02,54.64,0,.34-.08.68-.13,1.14-.44.08-.85.21-1.27.21-5.1.02-10.21.01-15.31,0-.34,0-.69-.05-.92-.07-.53-.36-.5-.81-.51-1.25,0-.62,0-1.23,0-1.85,0-16.89,0-33.78.01-50.68,0-.94-.18-1.92.24-2.98Z"/>
  <path class="cls-1" d="M496.21,669.09h3.66c.57.57.75,1.22.94,1.91.75,2.78,1.53,5.56,2.32,8.33.11.39.36.75.64,1.29,1.29-3.85,1.41-7.75,2.56-11.48,1.11-.16,2.13-.13,3.02-.05.19.18.28.23.31.3.03.07.03.18.01.26-1.28,5.08-2.55,10.15-3.86,15.35-.39.1-.79.28-1.2.29-.87.03-1.74-.02-2.71-.05-.7-1.96-1.22-3.88-1.71-5.81-.48-1.85-1.11-3.66-1.65-5.43-.54-.2-.72.06-.82.42-.92,3.28-1.84,6.57-2.76,9.85-.07.24-.21.47-.31.67-1.73.48-1.9.48-4,.05-1.4-5.14-2.59-10.41-3.98-15.69,1.07-.47,2.12-.22,3.2-.25.59.7.71,1.58.88,2.42.57,2.83,1.11,5.66,1.67,8.49.03.15.15.29.31.57.89-1.91,1.26-3.89,1.83-5.8.55-1.83,1.09-3.67,1.67-5.64Z"/>
  <path class="cls-1" d="M436.44,669.14h2.81c.14.26.28.4.28.55.01,5.09,0,10.18,0,15.34-1.32.5-2.62.22-4.01.26-.37-.6-.77-1.16-1.1-1.75-1.66-2.98-3.3-5.98-4.97-8.96-.15-.26-.45-.43-.87-.81-.2,3.92.05,7.59-.15,11.17-.27.16-.41.3-.57.32-.77.07-1.55.12-2.32-.06-.09-.36-.21-.6-.21-.84-.01-4.99,0-9.99,0-15.05,1.39-.54,2.69-.12,3.75-.28,1.05.57,1.36,1.42,1.77,2.19,1.51,2.77,3,5.55,4.49,8.33.2.37.35.78,1.02.8.07-1.84.02-3.67.04-5.51.01-1.83-.03-3.66.04-5.69Z"/>
  <path class="cls-1" d="M574.69,684.65c-1.09.24-2.02.59-2.97.62-2.28.09-4.56.04-6.84.03-.51,0-1.05.12-1.52-.21-.4-1.8-.52-10.57-.2-15.8.37-.08.78-.24,1.18-.25,2.19-.03,4.38.03,6.57-.03,1.43-.04,2.79.15,4.23.84,1.91,1.34,2.63,3.42,2.76,5.79.03.61,0,1.23.03,1.84.05,1.59-.12,3.14-1.02,4.96-.58.58-1.45,1.44-2.23,2.21ZM574.23,674.98c-.53-1.6-1.28-2.74-2.9-3.34-1.14,0-2.46-.02-3.77.01-.4.01-.81.17-1.25.26,0,3.45,0,6.78.01,10.1,0,.15.16.29.34.59,1.9.13,3.88.29,6.19-.75.01-.02.32-.34.55-.71.31-.52.55-1.09.83-1.64v-4.52Z"/>
  <path class="cls-1" d="M358.23,678.88c-2.76.28-31.87.26-34.03-.01-.07-.21-.21-.45-.21-.69-.02-.86-.11-1.73.07-2.5.3-.14.45-.28.6-.28,11.08,0,22.16,0,33.3,0,.58,1.12.29,2.23.27,3.49Z"/>
  <path class="cls-1" d="M633.45,679.02h-33.56c-.58-1.1-.27-2.22-.27-3.43.38-.09.71-.22,1.03-.23,10.74-.01,21.47,0,32.21,0,.25,0,.5.09.72.14.46,2.07.46,2.16-.13,3.52Z"/>
  <path class="cls-1" d="M384.49,685.13c-.86.31-1.71.19-2.51.11-.49-.32-.45-.78-.46-1.21-.03-1.74.05-3.48-.04-5.09-.74-.69-1.48-.43-2.15-.46-.79-.05-1.58-.04-2.37,0-.68.04-1.4-.21-2.18.4-.26,1.95.09,4.05-.2,6.17-.96.4-1.88.26-2.71.19-.17-.19-.24-.24-.28-.32-.04-.08-.05-.17-.05-.26-.02-.88-.04-1.75-.04-2.63,0-4.2,0-8.41,0-12.65.97-.56,1.91-.31,2.69-.3.58.39.5.86.51,1.28.01,1.32-.03,2.63.03,3.95.02.48.28.95.45,1.48,1.68.18,3.25.07,4.82.09.42,0,.84-.07,1.38-.11.33-2.19,0-4.29.22-6.35.89-.74,1.85-.21,2.76-.39.15.37.32.6.32.83.02,4.82.02,9.65.01,14.47,0,.24-.11.49-.19.8Z"/>
  <path class="cls-1" d="M398.58,682.49c-.18-.53-.4-1.19-.66-1.96,0-1.83,0-3.77,0-5.7,0-1.83-.03-3.66.03-5.59,1.04-.31,1.95-.24,2.71-.14.55.51.43.97.43,1.39.02,2.46,0,4.92.01,7.38,0,.61-.04,1.24.08,1.84.13.68.42,1.33.65,2.04.61.35,1.21.69,1.75,1h3.08c1.36-.51,1.89-1.48,2.33-2.94v-10.51c.99-.41,1.91-.26,2.81-.19.43,2.01.48,4.6.27,11.92-.58,2.41-2.44,3.47-4.81,4.3h-4.43c-1.68-.57-3.2-1.22-4.25-2.83Z"/>
  <path class="cls-1" d="M466.31,669.21c.39.71.24,1.39.1,2.2-.37.07-.78.2-1.19.21-1.22.04-2.43.03-3.47.03-.68.54-.55,1.1-.55,1.6-.01,3.33,0,6.67-.01,10,0,.6-.05,1.19-.08,1.85-.96.3-1.82.21-2.6.12-.52-.31-.49-.77-.49-1.2,0-3.33,0-6.67,0-10,0-.69-.05-1.37-.08-2.16-1.8-.52-3.57,0-5.26-.35-.36-1-.35-1-.16-2.2.15-.08.29-.23.44-.24,4.21-.03,8.42-.04,12.63-.04.25,0,.49.11.73.17Z"/>
  <path class="cls-1" d="M541.54,684.66c-.67-.68-1.35-1.36-1.87-1.9-.69-1.99-.81-3.8-.78-5.66.05-2.55.01-5.1.01-7.7,1.11-.64,2.19-.37,3.4-.25.24,1.39.1,2.71.12,4,.02,1.23,0,2.46,0,3.69.02,1.31.06,2.62.08,3.88.43.49.78.88,1.01,1.14,2.15,1.3,4.44.56,6.57.97.31.86.45,1.59-.27,2.34-1.85.28-3.78.14-5.7.09-.85-.02-1.69-.39-2.58-.61Z"/>
  <path class="cls-1" d="M522.74,669.13h2.68c.11.31.25.55.26.78.22,6.13.1,13.22-.25,15.26-.81.24-1.66.15-2.64.05-.08-.3-.25-.62-.25-.93-.01-4.81,0-9.62,0-14.43,0-.16.09-.33.2-.73Z"/>
  <path class="cls-1" d="M592.14,669c-.08,1.69-.72,3.17-1.56,4.58-.71-.25-.74-.85-.91-1.28-.33-.81-.51-1.67-.79-2.49-.11-.32-.34-.58-.86-.49-.14,1.35-.02,2.75-.15,4.15-.61-.12-.45-.51-.45-.78.01-1.49.05-2.98.09-4.47.01-.46.17-.86.77-1.1,1.25,1.36,1.15,3.34,2.06,4.86.47-.14.67-.49.79-.95.2-.73.31-1.53,1.06-1.97l-.06-.06Z"/>
  <path class="cls-1" d="M585.16,667.61c-.45.18-.91.37-1.43.58-.29,1.8.1,3.63-.26,5.41-.26-.06-.41-.09-.71-.16v-5.17c-.57-.24-1.03-.44-1.48-.63.02-.15,0-.4.06-.42,1.27-.37,2.53-.24,3.82.38Z"/>
  <path class="cls-1" d="M592.19,669.06c.05-.51.09-1.02.13-1.51.29-.16.5-.28.82-.46.18.34.39.61.47.92.09.33.05.69.06,1.04.01.43.02.87.03,1.31,0,.35.01.7.02,1.04s.02.7.02,1.04c0,.33-.03.67-.07,1.34-.85-1.63-.16-3.1-.69-4.58-.22-.05-.53-.13-.85-.21l.06.06Z"/>
  <path class="cls-1" d="M637.01,306.33c.36.13.49.36.24.9-.08-.43-.12-.69-.17-.96l-.06.06Z"/>
</svg>